HIERARCHY
ROOT Hips
{
    OFFSET 0.000000 0.000000 0.000000
    CHANNELS 6 Xposition Yposition Zposition Zrotation Xrotation Yrotation
    JOINT Spine
    {
        OFFSET -0.000000 14.517291 0.000000
        CHANNELS 3 Zrotation Xrotation Yrotation
        JOINT Spine1
        {
            OFFSET -0.000000 37.558300 0.000000
            CHANNELS 3 Zrotation Xrotation Yrotation
            JOINT Neck
            {
                OFFSET -0.000000 37.404057 3.400369
                CHANNELS 3 Zrotation Xrotation Yrotation
                JOINT Head
                {
                    OFFSET -0.000000 24.785618 -3.540803
                    CHANNELS 3 Zrotation Xrotation Yrotation
                    End Site
                    {
                        OFFSET -0.000000 35.408028 0.000000
                    }
                }
            }
            JOINT LeftShoulder
            {
                OFFSET 6.992933 33.973492 -0.192664
                CHANNELS 3 Zrotation Xrotation Yrotation
                JOINT LeftArm
                {
                    OFFSET 21.527611 0.000000 0.000000
                    CHANNELS 3 Zrotation Xrotation Yrotation
                    JOINT LeftForeArm
                    {
                        OFFSET 56.353916 0.000000 0.000000
                        CHANNELS 3 Zrotation Xrotation Yrotation
                        JOINT LeftHand
                        {
                            OFFSET 47.774071 0.000000 0.000000
                            CHANNELS 3 Zrotation Xrotation Yrotation
                            End Site
                            {
                                OFFSET 26.556021 0.000000 0.000000
                            }
                        }
                    }
                }
            }
            JOINT RightShoulder
            {
                OFFSET -7.065357 33.973492 -0.192664
                CHANNELS 3 Zrotation Xrotation Yrotation
                JOINT RightArm
                {
                    OFFSET -21.527611 0.000000 0.000000
                    CHANNELS 3 Zrotation Xrotation Yrotation
                    JOINT RightForeArm
                    {
                        OFFSET -56.353916 0.000000 0.000000
                        CHANNELS 3 Zrotation Xrotation Yrotation
                        JOINT RightHand
                        {
                            OFFSET -47.774071 0.000000 0.000000
                            CHANNELS 3 Zrotation Xrotation Yrotation
                            End Site
                            {
                                OFFSET -26.556021 0.000000 0.000000
                            }
                        }
                    }
                }
            }
        }
    }
    JOINT LeftUpLeg
    {
        OFFSET 17.704014 0.000000 0.000000
        CHANNELS 3 Zrotation Xrotation Yrotation
        JOINT LeftLeg
        {
            OFFSET -0.000000 -81.181816 0.000000
            CHANNELS 3 Zrotation Xrotation Yrotation
            JOINT LeftFoot
            {
                OFFSET -0.000000 -62.821102 0.000000
                CHANNELS 3 Zrotation Xrotation Yrotation
                JOINT LeftToeBase
                {
                    OFFSET -0.000000 -11.507608 26.556021
                    CHANNELS 3 Zrotation Xrotation Yrotation
                    End Site
                    {
                        OFFSET -0.000000 0.000000 7.081605
                    }
                }
            }
        }
    }
    JOINT RightUpLeg
    {
        OFFSET -17.704014 0.000000 0.000000
        CHANNELS 3 Zrotation Xrotation Yrotation
        JOINT RightLeg
        {
            OFFSET -0.000000 -81.181816 0.000000
            CHANNELS 3 Zrotation Xrotation Yrotation
            JOINT RightFoot
            {
                OFFSET -0.000000 -62.821102 0.000000
                CHANNELS 3 Zrotation Xrotation Yrotation
                JOINT RightToeBase
                {
                    OFFSET -0.000000 -11.507608 26.556021
                    CHANNELS 3 Zrotation Xrotation Yrotation
                    End Site
                    {
                        OFFSET -0.000000 0.000000 7.081605
                    }
                }
            }
        }
    }
}
MOTION
Frames:    12
Frame Time:    0.008333
20.364809    153.284317    -106.122528    0.049236    -7.848634    39.862217    -2.753702    1.102466    -0.348039    -2.014335    2.999009    -0.072808    1.873943    2.365176    -18.089294    16.527100    7.116462    -17.832878    5.002494    7.869418    -18.387070    -27.212803    22.580069    -53.560406    -4.494997    -7.219583    -107.322617    7.814259    -13.921838    -10.295695    -4.365609    2.710667    -0.466354    27.899893    -16.214636    53.540272    -21.552999    -24.891634    60.917007    7.760598    -10.267509    35.798077    17.663120    -2.642070    -0.197006    -16.062136    41.371372    -16.747442    9.923679    -30.646450    46.182220    0.000000    0.000000    0.000000    -19.071739    -16.345152    -13.916645    13.765530    33.561592    -14.475607    7.431449    1.808728    -17.124029    0.000000    0.000000    0.000000    
20.349958    153.269547    -106.105850    0.028884    -7.850129    39.919968    -2.728866    1.107732    -0.371771    -2.024908    2.989718    -0.080127    1.869776    2.357141    -18.093073    16.557215    7.101256    -17.831953    5.028401    7.856085    -18.379425    -27.189299    22.592480    -53.600410    -4.463331    -7.299389    -107.323425    7.779132    -13.953641    -10.280519    -4.341237    2.670070    -0.494025    28.007017    -16.345638    53.510628    -21.984631    -25.279240    60.802643    7.848581    -10.422050    35.876915    17.691000    -2.697523    -0.300320    -16.117096    41.407658    -16.701172    9.936005    -30.663773    46.194012    0.000000    0.000000    0.000000    -19.064255    -16.345806    -13.917235    13.789508    33.590469    -14.481452    7.444332    1.760940    -17.162060    0.000000    0.000000    0.000000    
20.337561    153.250092    -106.088707    0.013814    -7.848160    39.974457    -2.728968    1.110413    -0.377923    -2.009451    2.978117    -0.082837    1.880605    2.372623    -18.111227    16.568218    7.055467    -17.844658    5.045744    7.853068    -18.404888    -27.183338    22.570963    -53.629021    -4.435629    -7.333387    -107.303413    7.777416    -13.948577    -10.292455    -4.306018    2.650546    -0.544052    28.106928    -16.489452    53.491787    -22.397158    -25.646072    60.691246    7.917819    -10.579510    35.862953    17.710546    -2.748585    -0.374395    -16.156847    41.440632    -16.661797    9.980294    -30.664690    46.209568    0.000000    0.000000    0.000000    -19.062567    -16.351748    -13.916545    13.819221    33.626263    -14.513445    7.446342    1.709271    -17.201576    0.000000    0.000000    0.000000    
20.329420    153.232178    -106.074020    0.004847    -7.849835    40.030045    -2.709736    1.113226    -0.390466    -2.032221    2.979400    -0.086831    1.897999    2.375323    -18.122543    16.593861    7.024382    -17.852261    5.080303    7.837867    -18.424049    -27.176346    22.565933    -53.658691    -4.413532    -7.392074    -107.288712    7.777657    -13.976043    -10.305746    -4.255543    2.619313    -0.575368    28.184614    -16.633904    53.450161    -22.747131    -26.010654    60.619755    7.955750    -10.776475    35.810078    17.726797    -2.787740    -0.434215    -16.177912    41.474812    -16.649508    9.973596    -30.702860    46.214474    0.000000    0.000000    0.000000    -19.066219    -16.348484    -13.913600    13.845556    33.659977    -14.537102    7.468248    1.666627    -17.235508    0.000000    0.000000    0.000000    
20.322021    153.211807    -106.056786    0.010523    -7.850464    40.080029    -2.690799    1.126724    -0.413677    -2.066331    2.980046    -0.093496    1.894731    2.371334    -18.127001    16.629761    7.009246    -17.851627    5.098035    7.819909    -18.408003    -27.170641    22.540525    -53.659710    -4.461202    -7.395319    -107.299034    7.296952    -14.000045    -10.284523    -4.222239    2.595388    -0.601551    28.307009    -16.781031    53.437977    -23.110588    -26.338779    60.539886    8.058233    -10.901126    35.852650    17.735510    -2.815181    -0.477860    -16.199619    41.506325    -16.641254    9.996444    -30.714294    46.227222    0.000000    0.000000    0.000000    -19.080482    -16.343019    -13.880721    13.890867    33.694252    -14.604635    7.454443    1.618580    -17.234507    0.000000    0.000000    0.000000    
20.317610    153.191711    -106.038414    0.015004    -7.855968    40.131931    -2.690451    1.134305    -0.424139    -2.069872    2.988029    -0.096584    1.909299    2.373027    -18.141689    16.646900    6.986125    -17.864227    5.109301    7.814927    -18.418751    -27.154705    22.525631    -53.696064    -4.440746    -7.442519    -107.272888    7.346799    -14.021213    -10.291169    -4.180672    2.564524    -0.632779    28.213226    -16.761473    53.256466    -23.539753    -26.878618    60.471527    8.133439    -11.229593    35.840740    17.747250    -2.841053    -0.489948    -16.192360    41.552647    -16.672897    10.007617    -30.731409    46.223866    0.000000    0.000000    0.000000    -19.096048    -16.333290    -13.859718    13.946481    33.733318    -14.649787    7.448260    1.563195    -17.272717    0.000000    0.000000    0.000000    
20.310911    153.172394    -106.021416    0.019836    -7.855538    40.181316    -2.686714    1.130812    -0.441735    -2.083128    3.012429    -0.101650    1.901575    2.389883    -18.159391    16.702351    6.944232    -17.871147    5.111678    7.799402    -18.413284    -27.129950    22.514341    -53.721729    -4.406258    -7.501213    -107.251595    7.288678    -14.025778    -10.294317    -4.141642    2.522090    -0.662348    28.322083    -16.894894    53.232994    -23.870972    -27.186625    60.398739    8.215328    -11.363967    35.822231    17.756191    -2.867644    -0.503320    -16.195385    41.590275    -16.683605    10.013658    -30.754654    46.209023    0.000000    0.000000    0.000000    -19.112553    -16.334333    -13.837957    13.986961    33.781174    -14.697244    7.476978    1.517081    -17.304188    0.000000    0.000000    0.000000    
20.305248    153.154083    -106.006599    0.021879    -7.851195    40.232086    -2.687547    1.126861    -0.451807    -2.096904    3.023133    -0.104319    1.926138    2.394655    -18.173782    16.720892    6.927040    -17.885414    5.123543    7.800990    -18.436666    -27.129463    22.483753    -53.734398    -4.385001    -7.530805    -107.223534    7.244730    -14.020406    -10.307323    -4.086053    2.489202    -0.709026    28.403763    -17.000679    53.200630    -24.178417    -27.527485    60.301922    8.342911    -11.531653    35.938747    17.763277    -2.901115    -0.501879    -16.180330    41.633396    -16.703085    10.008069    -30.776052    46.180832    0.000000    0.000000    0.000000    -19.135214    -16.336840    -13.827175    14.032808    33.823578    -14.768115    7.475125    1.475000    -17.292212    0.000000    0.000000    0.000000    
20.302748    153.139786    -105.989059    0.034483    -7.862362    40.273960    -2.708235    1.140766    -0.449397    -2.077583    3.033991    -0.104036    1.935293    2.415268    -18.193314    16.758614    6.888983    -17.898256    5.123016    7.803340    -18.464758    -27.140316    22.445562    -53.745537    -4.389503    -7.534822    -107.190834    7.256863    -14.028049    -10.309328    -4.044741    2.438263    -0.743124    28.472475    -17.076172    53.135345    -24.554722    -27.841469    60.159996    8.354663    -11.687103    35.958694    17.773678    -2.904679    -0.502077    -16.174105    41.657475    -16.725597    10.017756    -30.777870    46.167583    0.000000    0.000000    0.000000    -19.151693    -16.323666    -13.794098    14.089613    33.860447    -14.824518    7.473620    1.443896    -17.322468    0.000000    0.000000    0.000000    
20.297455    153.126373    -105.969475    0.035167    -7.862888    40.317608    -2.711581    1.130698    -0.472589    -2.076472    3.053936    -0.111574    1.920015    2.421804    -18.205101    16.810272    6.892749    -17.905161    5.111701    7.806879    -18.453072    -27.141012    22.426508    -53.756958    -4.385562    -7.549890    -107.166527    7.280684    -14.036768    -10.306947    -4.016908    2.419715    -0.769760    28.844538    -17.396004    53.283146    -24.688498    -27.911564    60.139545    8.511781    -11.633142    36.039539    17.788296    -2.922753    -0.501013    -16.169334    41.684708    -16.760820    10.030005    -30.791058    46.170334    0.000000    0.000000    0.000000    -19.167622    -16.321688    -13.800876    14.114926    33.904537    -14.828103    7.515603    1.402000    -17.354759    0.000000    0.000000    0.000000    
20.295010    153.118820    -105.953445    0.037788    -7.865881    40.351723    -2.732615    1.126088    -0.471264    -2.057769    3.068456    -0.111144    1.938671    2.438050    -18.210125    16.837517    6.855337    -17.904867    5.114510    7.815641    -18.476271    -27.174711    22.394775    -53.760857    -4.390988    -7.552589    -107.132462    7.240831    -14.039284    -10.302511    -3.968682    2.394669    -0.821448    29.020405    -17.577602    53.279911    -24.918314    -28.054871    60.106953    8.534164    -11.662690    35.952412    17.800137    -2.929696    -0.487977    -16.154461    41.695564    -16.793854    10.032526    -30.792624    46.151104    0.000000    0.000000    0.000000    -19.177395    -16.320904    -13.796435    14.136883    33.944469    -14.856694    7.531778    1.376966    -17.356964    0.000000    0.000000    0.000000    
20.294485    153.113907    -105.935547    0.039536    -7.864728    40.386749    -2.752259    1.110600    -0.486447    -2.039448    3.089339    -0.116580    1.947695    2.448051    -18.220407    16.853025    6.854397    -17.915333    5.108190    7.827127    -18.475857    -27.187061    22.391781    -53.769203    -4.390604    -7.586269    -107.105339    7.247337    -14.068871    -10.294124    -3.933551    2.385976    -0.848206    29.153952    -17.692160    53.264652    -25.208492    -28.305674    60.032322    8.554079    -11.781708    35.952831    17.807430    -2.935845    -0.476170    -16.131609    41.700897    -16.836174    10.031393    -30.798723    46.140083    0.000000    0.000000    0.000000    -19.193707    -16.320154    -13.806259    14.161057    33.981304    -14.861716    7.530147    1.361821    -17.378448    0.000000    0.000000    0.000000    
